<?xml version="1.0" encoding="utf-8"?>
<!-- Generator: Adobe Illustrator 23.0.6, SVG Export Plug-In . SVG Version: 6.00 Build 0)  -->
<svg version="1.1" xmlns="http://www.w3.org/2000/svg" xmlns:xlink="http://www.w3.org/1999/xlink" x="0px" y="0px"
	 viewBox="0 0 100 100" style="enable-background:new 0 0 100 100;" xml:space="preserve">
<style type="text/css">
	.st0{fill:none;}
	.st1{fill:#313131;}
	.st2{display:none;}
	.st3{display:inline;}
</style>
<g id="Layer_2">
</g>
<g id="Layer_1">
	<g>
		<g>
			<polygon class="st0" points="20.2,56 21.3,56.7 42.3,42.1 68.9,23.5 68.2,22.4 68.2,22.4 			"/>
			<path class="st0" d="M68.1,22.4C68.1,22.4,68.2,22.4,68.1,22.4L68.1,22.4L68.1,22.4z"/>
			<polygon class="st0" points="73.6,31.1 45.9,39.9 73.6,31.9 			"/>
			<path class="st0" d="M68.2,22.4c1.4,1.5,7,7.8,6.2,13.1c-0.8,4.9-3.5,12.7-10.2,18c-5.5,4.4-12.9,8-21.9,8.7
				c-9,0.7-18.6-2.6-22.6-6.2l-4.6,3c7,5.1,15.2,8,25.9,7.1c10.5-0.9,21.3-5.9,24.5-8.2c3.2-2.3,11.6-9.7,13.9-18.5
				c1.6-6.1-0.9-16.1-5.2-21.3L68.2,22.4L68.2,22.4z"/>
			<polygon class="st0" points="45.4,61.3 42.6,42 44.3,61.3 			"/>
			<polygon class="st0" points="67.5,49.4 44.3,41.4 66.7,50.1 			"/>
			<g>
				<path class="st1" d="M42.3,62.2c9.1-0.7,16.5-4.3,21.9-8.7c6.6-5.3,9.4-13.1,10.2-18c0.9-5.4-5.4-12-5.4-12L42.3,42.1L20.9,57
					C25.4,60.1,34,62.8,42.3,62.2z M73,30.7l0.6,1.8l-27.7,7.5L73,30.7z M67.9,49l-1.3,1.6l-22.2-9.2L67.9,49z M46.3,61.3l-2.6,0.3
					l-1-19.5L46.3,61.3z"/>
				<path class="st1" d="M74.3,18.2c4.3,5.1,6.8,15.2,5.2,21.3c-2.3,8.7-9.5,15.9-13.9,18.5c-3.3,2.4-14,7.3-24.5,8.2
					c-10.7,0.9-18.9-2-25.9-7.1l4.6-3l48.5-33.6c0,0,0,0-0.1-0.1l0.1,0.1L74.3,18.2l-6.3,4C53,32.7,16,58.4,14.5,59.4
					c0,0,0,3.9,11.9,11.2c13,6.7,27.3,3.8,32.5,1.3c3.4-1.6,13.3-4.9,20.4-21.2C86.1,32.5,78.3,22.4,74.3,18.2z"/>
				<path class="st1" d="M20.9,57C20.9,57,20.9,57,20.9,57L20.9,57L20.9,57z"/>
			</g>
		</g>
	</g>
</g>
<g id="Layer_3" class="st2">
	<g class="st3">
		<g>
			<polygon class="st0" points="15.4,61.1 16.7,61.9 42.6,44 75.4,21 74.5,19.7 74.5,19.7 			"/>
			<path class="st0" d="M74.4,19.6C74.4,19.7,74.5,19.7,74.4,19.6L74.4,19.6L74.4,19.6z"/>
			<polygon class="st0" points="81.2,30.4 47,41.3 81.2,31.4 			"/>
			<path class="st0" d="M74.5,19.7c1.8,1.8,8.7,9.5,7.6,16.1c-1,6-4.4,15.6-12.5,22.1c-6.7,5.4-15.9,9.9-27,10.7
				c-11.1,0.8-22.9-3.2-27.8-7.6l-5.6,3.7c8.6,6.3,18.7,9.9,32,8.7c12.9-1.1,26.2-7.2,30.2-10.2c3.9-2.8,14.3-12,17.1-22.7
				c2-7.5-1.2-19.9-6.5-26.2L74.5,19.7L74.5,19.7z"/>
			<polygon class="st0" points="46.5,67.5 43,43.8 45.1,67.5 			"/>
			<polygon class="st0" points="73.6,52.9 45.1,43 72.7,53.9 			"/>
			<g>
				<path class="st1" d="M42.6,68.7c11.2-0.8,20.3-5.3,27-10.7c8.2-6.6,11.6-16.1,12.5-22.1c1.1-6.6-6.7-14.8-6.7-14.8L42.6,44
					L16.2,62.2C21.8,66.1,32.4,69.4,42.6,68.7z M80.4,29.8l0.8,2.2L47,41.3L80.4,29.8z M74.1,52.4l-1.7,1.9L45.1,43L74.1,52.4z
					 M47.5,67.5l-3.2,0.4L43,43.8L47.5,67.5z"/>
				<path class="st1" d="M82,14.4c5.3,6.3,8.4,18.7,6.5,26.2c-2.8,10.7-11.7,19.6-17.1,22.7c-4.1,2.9-17.3,9-30.2,10.2
					c-13.2,1.1-23.3-2.4-32-8.7l5.6-3.7l59.8-41.4c0,0,0,0-0.1-0.1l0.1,0.1L82,14.4l-7.8,5C55.8,32.3,10.3,64,8.3,65.2
					c0,0,0,4.8,14.7,13.8c16,8.3,33.6,4.7,40,1.6c4.1-2,16.4-6,25.2-26.1C96.6,32.1,87,19.7,82,14.4z"/>
				<path class="st1" d="M16.2,62.2C16.2,62.2,16.2,62.2,16.2,62.2L16.2,62.2L16.2,62.2z"/>
			</g>
		</g>
	</g>
</g>
</svg>
