<?xml version="1.0" encoding="utf-8"?>
<!-- Generator: Adobe Illustrator 23.0.6, SVG Export Plug-In . SVG Version: 6.00 Build 0)  -->
<svg version="1.1" id="Layer_1" xmlns="http://www.w3.org/2000/svg" xmlns:xlink="http://www.w3.org/1999/xlink" x="0px" y="0px"
	 viewBox="0 0 100 82.5" style="enable-background:new 0 0 100 82.5;" xml:space="preserve">
<style type="text/css">
	.st0{fill:none;}
	.st1{fill:#E3E52F;}
</style>
<g>
	<g>
		<polygon class="st0" points="10.2,54.6 11.7,55.5 41.7,34.8 79.5,8.3 78.5,6.8 78.5,6.8 		"/>
		<path class="st0" d="M78.4,6.7C78.4,6.7,78.5,6.8,78.4,6.7L78.4,6.7L78.4,6.7z"/>
		<polygon class="st0" points="86.2,19.1 46.8,31.7 86.2,20.3 		"/>
		<path class="st0" d="M78.5,6.8c2.1,2.1,10,11,8.8,18.7c-1.1,7-5,18-14.5,25.6C65,57.3,54.5,62.4,41.6,63.4
			c-12.9,0.9-26.4-3.7-32.1-8.8l-6.5,4.3c10,7.3,21.7,11.4,36.9,10.1c15-1.3,30.3-8.3,34.9-11.7c4.5-3.3,16.5-13.9,19.8-26.3
			c2.3-8.6-1.3-23-7.5-30.3L78.5,6.8L78.5,6.8z"/>
		<polygon class="st0" points="46.1,62 42.1,34.7 44.5,62 		"/>
		<polygon class="st0" points="77.5,45.2 44.5,33.7 76.4,46.2 		"/>
		<g>
			<path class="st1" d="M41.6,63.4C54.5,62.4,65,57.3,72.8,51c9.4-7.6,13.4-18.6,14.5-25.6c1.2-7.6-7.8-17.1-7.8-17.1L41.7,34.8
				L11.1,55.9C17.6,60.4,29.9,64.2,41.6,63.4z M85.3,18.5l0.9,2.6L46.8,31.7L85.3,18.5z M78.1,44.6l-1.9,2.2l-31.7-13L78.1,44.6z
				 M47.3,62l-3.7,0.4l-1.5-27.8L47.3,62z"/>
			<path class="st1" d="M87.1,0.7C93.3,8,96.9,22.3,94.6,31c-3.3,12.4-13.5,22.6-19.8,26.3c-4.7,3.4-20,10.4-34.9,11.7
				c-15.3,1.3-27-2.8-36.9-10.1l6.5-4.3l69-47.8c0,0,0,0-0.1-0.1l0.1,0.1L87.1,0.7l-9,5.7C56.9,21.4,4.3,58,2,59.4
				c0,0,0,5.6,17,15.9c18.5,9.6,38.8,5.4,46.2,1.9c4.8-2.3,19-6.9,29.1-30.2C104,21.2,92.9,6.8,87.1,0.7z"/>
			<path class="st1" d="M11.1,55.9C11.1,55.9,11.1,55.9,11.1,55.9L11.1,55.9L11.1,55.9z"/>
		</g>
	</g>
</g>
</svg>
